<svg width="100%" height="100%" viewBox="0 0 1920 1080" style="fill-rule:evenodd;clip-rule:evenodd;stroke-miterlimit:2;">
    <path id="bar1" d="M80,516.579L0,516.579L0,1080L80,1080L80,516.579Z"/>
    <path id="bar2" d="M160,529.673L80,529.673L80,1080L160,1080L160,529.673Z"/>
    <path id="bar3" d="M240,602.483L160,602.483L160,1080L240,1080L240,602.483Z"/>
    <path id="bar4" d="M320,547.091L240,547.091L240,1080L320,1080L320,547.091Z"/>
    <path id="bar5" d="M400,497.108L320,497.108L320,1080L400,1080L400,497.108Z"/>
    <path id="bar6" d="M480,481.178L400,481.178L400,1080L480,1080L480,481.178Z"/>
    <path id="bar7" d="M560,458.734L480,458.734L480,1080L560,1080L560,458.734Z"/>
    <path id="bar8" d="M640,399.015L560,399.015L560,1080L640,1080L640,399.015Z"/>
    <path id="bar9" d="M720,373.276L640,373.276L640,1080L720,1080L720,373.276Z"/>
    <path id="bar10" d="M800,415.408L720,415.408L720,1080L800,1080L800,415.408Z"/>
    <path id="bar12" d="M880,458.427L800,458.427L800,1080L880,1080L880,458.427Z"/>
    <path id="bar14" d="M960,427.626L880,427.626L880,1080L960,1080L960,427.626Z"/>
    <path id="bar11" d="M1040,397.491L960,397.491L960,1080L1040,1080L1040,397.491Z"/>
    <path id="bar13" d="M1120,369.196L1040,369.196L1040,1080L1120,1080L1120,369.196Z"/>
    <path id="bar15" d="M1200,417.883L1120,417.883L1120,1080L1200,1080L1200,417.883Z"/>
    <path id="bar16" d="M1280,447.938L1200,447.938L1200,1080L1280,1080L1280,447.938Z"/>
    <path id="bar18" d="M1360,479.013L1280,479.013L1280,1080L1360,1080L1360,479.013Z"/>
    <path id="bar20" d="M1440,503.808L1360,503.808L1360,1080L1440,1080L1440,503.808Z"/>
    <path id="bar17" d="M1520,422.37L1440,422.37L1440,1080L1520,1080L1520,422.37Z"/>
    <path id="bar19" d="M1600,537.058L1520,537.058L1520,1080L1600,1080L1600,537.058Z"/>
    <path id="bar21" d="M1680,471.872L1600,471.872L1600,1080L1680,1080L1680,471.872Z"/>
    <path id="bar22" d="M1760,497.31L1680,497.31L1680,1080L1760,1080L1760,497.31Z"/>
    <path id="bar23" d="M1840,426.22L1760,426.22L1760,1080L1840,1080L1840,426.22Z"/>
    <path id="bar24" d="M1920,372.307L1840,372.307L1840,1080L1920,1080L1920,372.307Z"/>
</svg>
