<svg width="100%" height="100%" viewBox="0 0 1920 1080" style="fill-rule:evenodd;clip-rule:evenodd;stroke-miterlimit:2;">
    <path id="bar1" d="M80,269L0,269L0,1080L80,1080L80,269Z"/>
    <path id="bar2" d="M160,323.684L80,323.684L80,1080L160,1080L160,323.684Z"/>
    <path id="bar3" d="M240,410.01L160,410.01L160,1080L240,1080L240,410.01Z"/>
    <path id="bar4" d="M320,404.379L240,404.379L240,1080L320,1080L320,404.379Z"/>
    <path id="bar5" d="M400,369.196L320,369.196L320,1080L400,1080L400,369.196Z"/>
    <path id="bar6" d="M480,507.909L400,507.909L400,1080L480,1080L480,507.909Z"/>
    <path id="bar7" d="M560,562.786L480,562.786L480,1080L560,1080L560,562.786Z"/>
    <path id="bar8" d="M640,557.358L560,557.358L560,1080L640,1080L640,557.358Z"/>
    <path id="bar9" d="M720,592.856L640,592.856L640,1080L720,1080L720,592.856Z"/>
    <path id="bar10" d="M800,537.204L720,537.204L720,1080L800,1080L800,537.204Z"/>
    <path id="bar12" d="M880,450.347L800,450.347L800,1080L880,1080L880,450.347Z"/>
    <path id="bar14" d="M960,389.796L880,389.796L880,1080L960,1080L960,389.796Z"/>
    <path id="bar11" d="M1040,420.144L960,420.144L960,1080L1040,1080L1040,420.144Z"/>
    <path id="bar13" d="M1120,454.144L1040,454.144L1040,1080L1120,1080L1120,454.144Z"/>
    <path id="bar15" d="M1200,468.123L1120,468.123L1120,1080L1200,1080L1200,468.123Z"/>
    <path id="bar16" d="M1280,391.684L1200,391.684L1200,1080L1280,1080L1280,391.684Z"/>
    <path id="bar18" d="M1360,344.909L1280,344.909L1280,1080L1360,1080L1360,344.909Z"/>
    <path id="bar20" d="M1440,305.144L1360,305.144L1360,1080L1440,1080L1440,305.144Z"/>
    <path id="bar17" d="M1520,234.277L1440,234.277L1440,1080L1520,1080L1520,234.277Z"/>
    <path id="bar19" d="M1600,362.632L1520,362.632L1520,1080L1600,1080L1600,362.632Z"/>
    <path id="bar21" d="M1680,341.846L1600,341.846L1600,1080L1680,1080L1680,341.846Z"/>
    <path id="bar22" d="M1760,366.906L1680,366.906L1680,1080L1760,1080L1760,366.906Z"/>
    <path id="bar23" d="M1840,311.295L1760,311.295L1760,1080L1840,1080L1840,311.295Z"/>
    <path id="bar24" d="M1920,407.948L1840,407.948L1840,1080L1920,1080L1920,407.948Z"/>
</svg>
