<svg width="100%" height="100%" viewBox="0 0 1920 1080" style="fill-rule:evenodd;clip-rule:evenodd;stroke-miterlimit:2;">
    <path id="bar1" d="M80,410.579L0,410.579L0,1080L80,1080L80,410.579Z"/>
    <path id="bar2" d="M160,459.6L80,459.6L80,1080L160,1080L160,459.6Z"/>
    <path id="bar3" d="M240,525.162L160,525.162L160,1080L240,1080L240,525.162Z"/>
    <path id="bar4" d="M320,468.561L240,468.561L240,1080L320,1080L320,468.561Z"/>
    <path id="bar5" d="M400,425.828L320,425.828L320,1080L400,1080L400,425.828Z"/>
    <path id="bar6" d="M480,383.319L400,383.319L400,1080L480,1080L480,383.319Z"/>
    <path id="bar7" d="M560,347.585L480,347.585L480,1080L560,1080L560,347.585Z"/>
    <path id="bar8" d="M640,328.943L560,328.943L560,1080L640,1080L640,328.943Z"/>
    <path id="bar9" d="M720,419.186L640,419.186L640,1080L720,1080L720,419.186Z"/>
    <path id="bar10" d="M800,467.358L720,467.358L720,1080L800,1080L800,467.358Z"/>
    <path id="bar12" d="M880,546.621L800,546.621L800,1080L880,1080L880,546.621Z"/>
    <path id="bar14" d="M960,444.54L880,444.54L880,1080L960,1080L960,444.54Z"/>
    <path id="bar11" d="M1040,397.491L960,397.491L960,1080L1040,1080L1040,397.491Z"/>
    <path id="bar13" d="M1120,369.196L1040,369.196L1040,1080L1120,1080L1120,369.196Z"/>
    <path id="bar15" d="M1200,340.561L1120,340.561L1120,1080L1200,1080L1200,340.561Z"/>
    <path id="bar16" d="M1280,272.757L1200,272.757L1200,1080L1280,1080L1280,272.757Z"/>
    <path id="bar18" d="M1360,344.909L1280,344.909L1280,1080L1360,1080L1360,344.909Z"/>
    <path id="bar20" d="M1440,363.663L1360,363.663L1360,1080L1440,1080L1440,363.663Z"/>
    <path id="bar17" d="M1520,390.958L1440,390.958L1440,1080L1520,1080L1520,390.958Z"/>
    <path id="bar19" d="M1600,373.958L1520,373.958L1520,1080L1600,1080L1600,373.958Z"/>
    <path id="bar21" d="M1680,421.13L1600,421.13L1600,1080L1680,1080L1680,421.13Z"/>
    <path id="bar22" d="M1760,349.916L1680,349.916L1680,1080L1760,1080L1760,349.916Z"/>
    <path id="bar23" d="M1840,284.867L1760,284.867L1760,1080L1840,1080L1840,284.867Z"/>
    <path id="bar24" d="M1920,241.828L1840,241.828L1840,1080L1920,1080L1920,241.828Z"/>
</svg>
